<svg xmlns="http://www.w3.org/2000/svg">
  <use id="phone" viewBox="0 0 22 22">
    <path d="M19.1667 15.0126V17.4615C19.1677 17.6889 19.1211 17.9139 19.0301 18.1222C18.939 18.3305 18.8055 18.5175 18.638 18.6712C18.4705 18.8249 18.2728 18.9419 18.0575 19.0147C17.8421 19.0876 17.614 19.1146 17.3876 19.0942C14.8763 18.8212 12.4641 17.9629 10.3446 16.5881C8.37277 15.3348 6.70099 13.6626 5.44799 11.6903C4.06875 9.56068 3.21042 7.13608 2.94254 4.61288C2.92214 4.38714 2.94896 4.15963 3.02129 3.94483C3.09362 3.73003 3.20987 3.53265 3.36264 3.36525C3.51541 3.19786 3.70136 3.06411 3.90864 2.97253C4.11592 2.88095 4.33999 2.83354 4.56659 2.83333H7.01491C7.41097 2.82943 7.79494 2.96972 8.09524 3.22804C8.39555 3.48637 8.59169 3.8451 8.64713 4.23738C8.75046 5.02109 8.94211 5.79059 9.2184 6.5312C9.3282 6.82337 9.35197 7.14091 9.28688 7.44618C9.22179 7.75145 9.07057 8.03166 8.85115 8.25361L7.8147 9.29031C8.97647 11.334 10.6682 13.0261 12.7113 14.1882L13.7478 13.1514C13.9697 12.932 14.2498 12.7807 14.555 12.7156C14.8602 12.6505 15.1777 12.6743 15.4698 12.7841C16.2102 13.0605 16.9795 13.2522 17.763 13.3555C18.1595 13.4115 18.5215 13.6112 18.7803 13.9167C19.0392 14.2223 19.1767 14.6123 19.1667 15.0126Z" stroke="#888888" stroke-width="1.5" stroke-linecap="round" stroke-linejoin="round"/>
  </use>
  
  <use id="mail" viewBox="0 0 22 22">
    <path d="M3.66671 3.66669H18.3334C19.3417 3.66669 20.1667 4.49169 20.1667 5.50002V16.5C20.1667 17.5084 19.3417 18.3334 18.3334 18.3334H3.66671C2.65837 18.3334 1.83337 17.5084 1.83337 16.5V5.50002C1.83337 4.49169 2.65837 3.66669 3.66671 3.66669Z" stroke="#888888" stroke-width="1.5" stroke-linecap="round" stroke-linejoin="round"/>
    <path d="M20.1667 5.5L11 11.9167L1.83337 5.5" stroke="#888888" stroke-width="1.5" stroke-linecap="round" stroke-linejoin="round"/>
  </use>
  <use id="user" viewBox="0 0 18 18">
    <path d="M15 15.75V14.25C15 13.4544 14.6839 12.6913 14.1213 12.1287C13.5587 11.5661 12.7956 11.25 12 11.25H6C5.20435 11.25 4.44129 11.5661 3.87868 12.1287C3.31607 12.6913 3 13.4544 3 14.25V15.75" stroke="#888888" stroke-width="2" stroke-linecap="round" stroke-linejoin="round"/>
    <path d="M9 8.25C10.6569 8.25 12 6.90685 12 5.25C12 3.59315 10.6569 2.25 9 2.25C7.34315 2.25 6 3.59315 6 5.25C6 6.90685 7.34315 8.25 9 8.25Z" stroke="#888888" stroke-width="2" stroke-linecap="round" stroke-linejoin="round"/>
  </use>
</svg>